<?xml version="1.0" encoding="iso-8859-1"?>
<!-- Generator: Adobe Illustrator 19.0.0, SVG Export Plug-In . SVG Version: 6.00 Build 0)  -->
<svg xmlns="http://www.w3.org/2000/svg" xmlns:xlink="http://www.w3.org/1999/xlink" version="1.1" id="Capa_1" x="0px" y="0px" viewBox="0 0 512.001 512.001" style="enable-background:new 0 0 512.001 512.001;" xml:space="preserve" width="512px" height="512px">
<g>
	<g>
		<path d="M469.036,198.736h-8.453v-5.832c0-25.449-20.705-46.155-46.155-46.155h-56.539v-11.204    c0-20.222-16.451-36.672-36.671-36.672H266.01V73.639c15.836-4.389,27.499-18.923,27.499-36.137    C293.508,16.824,276.684,0,256.005,0c-20.685,0-37.512,16.824-37.512,37.502c0,17.216,11.667,31.75,27.509,36.138v25.232h-55.218    c-20.222,0-36.672,16.45-36.672,36.672v11.204H97.583c-25.449,0-46.155,20.705-46.155,46.155v5.832h-8.463    c-16.896,0-30.64,13.75-30.64,30.651v140.486c0,16.896,13.745,30.64,30.64,30.64h8.463v5.842c0,25.45,20.705,46.156,46.155,46.156    h52.547h45.805v49.486c0,5.524,4.479,10.003,10.003,10.003h100.133c5.524,0,10.003-4.479,10.003-10.003v-49.486h45.795h52.557    c25.449,0,46.155-20.705,46.155-46.156v-5.842h8.453c16.896,0,30.64-13.745,30.64-30.64V229.387    C499.676,212.486,485.932,198.736,469.036,198.736z M51.428,380.506h-8.463c-5.863,0-10.634-4.771-10.634-10.634V229.387    c0-5.869,4.771-10.645,10.634-10.645h8.463V380.506z M238.5,37.502c0-9.648,7.854-17.496,17.506-17.496    c9.648,0,17.496,7.849,17.496,17.496c0,9.647-7.849,17.496-17.496,17.496C246.353,54.998,238.5,47.151,238.5,37.502z     M174.118,135.545c0-9.19,7.477-16.666,16.666-16.666h130.433c9.189,0,16.666,7.476,16.666,16.666v11.204H174.118V135.545z     M296.069,491.993h-80.127V452.51h80.127V491.993z M351.868,432.504L351.868,432.504h-45.796H205.939h-45.805v-44.125    c0-14.214,11.565-25.779,25.779-25.779h140.176c14.215,0,25.78,11.565,25.78,25.779V432.504z M440.577,208.739v48.066h-39.784    c-4.69-24.372-26.162-42.844-51.876-42.844c-29.141,0-52.848,23.707-52.848,52.848c0,29.135,23.707,52.838,52.848,52.838    c25.715,0,47.186-18.468,51.875-42.834h39.784V390.51v15.845c0,14.419-11.731,26.15-26.149,26.15h-42.554V388.38    c0-25.245-20.539-45.785-45.786-45.785H185.912c-25.245,0-45.785,20.539-45.785,45.785v44.125H97.583    c-14.418,0-26.149-11.731-26.149-26.15V390.51V276.812h39.775c4.691,24.366,26.166,42.834,51.885,42.834    c29.135,0,52.838-23.703,52.838-52.838c0-29.141-23.703-52.848-52.838-52.848c-25.72,0-47.196,18.472-51.885,42.844H71.434    v-48.066v-15.835c0-14.418,11.731-26.149,26.149-26.149h66.532h183.771h66.543c14.417,0,26.148,11.731,26.148,26.149V208.739z     M381.747,266.809c0,18.104-14.728,32.831-32.831,32.831c-18.109,0-32.841-14.728-32.841-32.831    c0-18.109,14.733-32.841,32.841-32.841C367.019,233.968,381.747,248.7,381.747,266.809z M130.254,266.809    c0-18.109,14.733-32.841,32.841-32.841c18.104,0,32.831,14.733,32.831,32.841c0,18.104-14.728,32.831-32.831,32.831    C144.987,299.64,130.254,284.912,130.254,266.809z M479.67,369.873c0,5.863-4.771,10.634-10.633,10.634h-8.453V218.743h8.453    c5.863,0,10.633,4.775,10.633,10.645V369.873z" fill="#FFFFFF"/>
	</g>
</g>
<g>
	<g>
		<path d="M316.043,185.892H226.02c-5.524,0-10.003,4.479-10.003,10.003c0,5.524,4.479,10.003,10.003,10.003h90.024    c5.524,0,10.003-4.479,10.003-10.003C326.047,190.371,321.567,185.892,316.043,185.892z" fill="#FFFFFF"/>
	</g>
</g>
<g>
	<g>
		<path d="M347.886,185.892c-12.873,0-12.894,20.007,0,20.007C360.759,205.898,360.78,185.892,347.886,185.892z" fill="#FFFFFF"/>
	</g>
</g>
<g>
</g>
<g>
</g>
<g>
</g>
<g>
</g>
<g>
</g>
<g>
</g>
<g>
</g>
<g>
</g>
<g>
</g>
<g>
</g>
<g>
</g>
<g>
</g>
<g>
</g>
<g>
</g>
<g>
</g>
</svg>
